<svg xmlns="http://www.w3.org/2000/svg" width="87" height="87" viewBox="0 0 87 87">
<path id="globe-europe-light" d="M32.274,27.5a2.231,2.231,0,0,0-2.228-2.228h-.018a2.145,2.145,0,0,0-1.561.649l-5,5a2.2,2.2,0,0,0-.649,1.561V32.5a2.231,2.231,0,0,0,2.228,2.228H28.2a2.145,2.145,0,0,0,1.561-.649l1.842-1.842a2.2,2.2,0,0,0,.649-1.561V27.5ZM43.5,8A43.5,43.5,0,1,0,87,51.5,43.493,43.493,0,0,0,43.5,8Zm8.419,80.4V82.371A8.422,8.422,0,0,0,43.5,73.952H39.957A7.082,7.082,0,0,1,37.115,73l-3.894-2.929a2.368,2.368,0,0,1-.947-1.894V63.989a2.415,2.415,0,0,1,1.14-2.035l7.525-4.508a2.29,2.29,0,0,1,1.21-.333h5.473a2.489,2.489,0,0,1,1.544.561l9.156,7.858h5.3l3.034,3.034a8.743,8.743,0,0,0,6.227,2.578h2.947A37.885,37.885,0,0,1,51.919,88.4ZM78.668,65.532H72.9a3.214,3.214,0,0,1-2.263-.93L67.6,61.568a5.6,5.6,0,0,0-3.964-1.649h-3.21l-7.577-6.507A7.909,7.909,0,0,0,47.657,51.5H42.184a7.917,7.917,0,0,0-4.1,1.14l-7.525,4.508a7.971,7.971,0,0,0-3.876,6.841v4.192a7.967,7.967,0,0,0,3.192,6.385l3.894,2.929a12.089,12.089,0,0,0,6.209,2.07h3.543a2.815,2.815,0,0,1,2.806,2.806v6.876c-.93.07-1.859.14-2.806.14a37.887,37.887,0,0,1-.123-75.774l-2.7,1.947a6.889,6.889,0,0,0-2.806,5.508v4.069a10.508,10.508,0,0,0,1.035,3.911c-.14.368-3.7,2.631-4.315,3.245a7.908,7.908,0,0,0-2.333,5.63V40.8a7.98,7.98,0,0,0,7.963,7.963h4.438A7.946,7.946,0,0,0,49.8,46.9a6.567,6.567,0,0,0,2.21.368h2.35c4.49,0,5.648-3.543,6.332-3.771a7.431,7.431,0,0,0,4.122,3.42,7.4,7.4,0,0,0,1.772,7.3l3.192,3.35a8.066,8.066,0,0,0,5.736,2.438H80.37a37.293,37.293,0,0,1-1.7,5.525ZM75.546,54.377a2.406,2.406,0,0,1-1.684-.7l-3.245-3.4a1.742,1.742,0,0,1,.018-2.456c2.21-2.21,1.842-1.508,1.842-3.122a1.66,1.66,0,0,0-.491-1.175L70.6,42.133a1.66,1.66,0,0,0-1.175-.491h-2.35A1.666,1.666,0,0,1,65.9,38.8l1.386-1.28a1.66,1.66,0,0,1,1.175-.491h1.456a1.666,1.666,0,0,0,1.666-1.666V33.574a1.666,1.666,0,0,0-1.666-1.666H64.969a2.351,2.351,0,0,0-2.35,2.35v.982a2.338,2.338,0,0,1-1.614,2.228l-4.648,1.544c-.754.246-.807.877-.807,1.438a1.175,1.175,0,0,1-1.175,1.175h-2.35a1.175,1.175,0,0,1-1.175-1.175c0-1.473-2.193-1.508-2.684-.526-1.579,2.175-2.017,3.192-3.491,3.192H40.237a2.351,2.351,0,0,1-2.35-2.35V37.889a2.348,2.348,0,0,1,.684-1.666c3.42-2.456,5.192-3.087,5.192-5.525a1.169,1.169,0,0,1,.807-1.123l5.894-1.965a1.563,1.563,0,0,0,.649-.4l3.947-3.947a1.5,1.5,0,0,0-1.175-2.614H50.832l-2.35,3.315v1.175a1.175,1.175,0,0,1-1.175,1.175H44.675A1.175,1.175,0,0,1,43.5,25.137V21.068a1.2,1.2,0,0,1,.474-.947l7.718-5.6A37.961,37.961,0,0,1,81.387,51.5c0,.965-.07,1.929-.14,2.877Z" transform="translate(0 -8)" fill="#a8a8a8"></path>
</svg>