<svg xmlns="http://www.w3.org/2000/svg" width="89.275" height="71.42" viewBox="0 0 89.275 71.42">
<path id="laptop-regular" d="M87.044,49.1h-6.7V8.928A8.954,8.954,0,0,0,71.42,0H17.855A8.954,8.954,0,0,0,8.928,8.928V49.1h-6.7A2.238,2.238,0,0,0,0,51.333v6.7A13.431,13.431,0,0,0,13.391,71.42H75.884A13.431,13.431,0,0,0,89.275,58.029v-6.7A2.238,2.238,0,0,0,87.044,49.1ZM15.623,8.928A2.262,2.262,0,0,1,17.855,6.7H71.42a2.262,2.262,0,0,1,2.232,2.232V49.1H15.623Zm66.957,49.1a6.7,6.7,0,0,1-6.7,6.7H13.391a6.7,6.7,0,0,1-6.7-6.7V55.8H31.93a4.4,4.4,0,0,0,3.78,2.232H53.565a4.4,4.4,0,0,0,3.78-2.232H82.58Z" fill="#a8a8a8"></path>
</svg>