<svg xmlns="http://www.w3.org/2000/svg" viewBox="0 0 322 79">
<style type="text/css">
	.st0{enable-background:new    ;}
	.st1{fill:#002E72;}
	.st2{fill:#707070;}
	.st3{fill:none;stroke:#707070;}
</style>
<g id="Group_11" transform="translate(-372 -49)">
	<g class="st0">
		<path class="st1" d="M399.2,82h-4.8V69c0-1.4,0.1-3,0.2-4.6h-0.1c-0.3,1.3-0.5,2.3-0.7,2.9L388.7,82h-4l-5.2-14.6
			c-0.1-0.4-0.4-1.4-0.7-3h-0.1c0.1,2.1,0.2,4,0.2,5.6v12h-4.4V60.3h7.2l4.4,12.9c0.4,1,0.6,2.1,0.8,3.1h0.1
			c0.3-1.2,0.6-2.2,0.9-3.1l4.4-12.8h7V82z"/>
		<path class="st1" d="M416.6,82h-4.5v-2.2H412c-1,1.7-2.6,2.6-4.6,2.6c-1.5,0-2.7-0.4-3.5-1.3c-0.9-0.9-1.3-2-1.3-3.4
			c0-3,1.8-4.7,5.3-5.2l4.2-0.6c0-1.7-0.9-2.5-2.8-2.5c-1.8,0-3.6,0.5-5.3,1.6v-3.6c0.7-0.3,1.6-0.6,2.7-0.9
			c1.2-0.3,2.2-0.4,3.2-0.4c4.4,0,6.6,2.2,6.6,6.6V82z M412.1,75.7v-1l-2.8,0.4c-1.6,0.2-2.3,0.9-2.3,2.1c0,0.5,0.2,1,0.6,1.3
			c0.4,0.3,0.9,0.5,1.5,0.5c0.9,0,1.6-0.3,2.2-0.9C411.8,77.4,412.1,76.7,412.1,75.7z"/>
		<path class="st1" d="M430.5,70.8c-0.6-0.3-1.2-0.5-2-0.5c-1,0-1.9,0.4-2.4,1.1c-0.6,0.8-0.9,1.8-0.9,3.1V82h-4.8V66.5h4.8v2.9h0.1
			c0.8-2.1,2.1-3.1,4.1-3.1c0.5,0,0.9,0.1,1.2,0.2V70.8z"/>
		<path class="st1" d="M435.2,64c-0.8,0-1.5-0.2-2-0.7s-0.8-1.1-0.8-1.8c0-0.7,0.3-1.3,0.8-1.8s1.2-0.7,2-0.7c0.8,0,1.5,0.2,2,0.7
			c0.5,0.5,0.8,1,0.8,1.8c0,0.7-0.3,1.3-0.8,1.8C436.7,63.8,436.1,64,435.2,64z M437.6,82h-4.8V66.5h4.8V82z"/>
		<path class="st1" d="M456.4,82h-4.8v-2.4h-0.1c-1.2,1.8-2.8,2.7-4.7,2.7c-3.6,0-5.4-2.2-5.4-6.5v-9.4h4.8v8.9
			c0,2.2,0.9,3.3,2.6,3.3c0.9,0,1.5-0.3,2.1-0.9c0.5-0.6,0.8-1.4,0.8-2.4v-8.9h4.8V82z"/>
		<path class="st1" d="M459.4,81.6v-3.9c0.8,0.5,1.6,0.8,2.4,1.1c0.8,0.2,1.5,0.3,2.2,0.3c0.8,0,1.5-0.1,2-0.3
			c0.5-0.2,0.7-0.6,0.7-1.1c0-0.3-0.1-0.6-0.3-0.8c-0.2-0.2-0.5-0.4-0.9-0.5c-0.3-0.2-0.7-0.3-1.1-0.4c-0.4-0.1-0.8-0.3-1.2-0.4
			c-0.6-0.2-1.2-0.5-1.6-0.7c-0.5-0.3-0.9-0.6-1.2-0.9c-0.3-0.4-0.6-0.8-0.7-1.2c-0.2-0.5-0.2-1-0.2-1.6c0-0.9,0.2-1.6,0.6-2.2
			c0.4-0.6,0.9-1.1,1.5-1.5c0.6-0.4,1.4-0.7,2.2-0.9c0.8-0.2,1.7-0.3,2.5-0.3c0.7,0,1.4,0.1,2.1,0.2c0.7,0.1,1.4,0.3,2.1,0.5v3.7
			c-0.6-0.4-1.3-0.6-1.9-0.8c-0.7-0.2-1.4-0.3-2-0.3c-0.3,0-0.6,0-0.9,0.1c-0.3,0.1-0.5,0.1-0.7,0.2c-0.2,0.1-0.4,0.2-0.5,0.4
			c-0.1,0.2-0.2,0.4-0.2,0.6c0,0.3,0.1,0.5,0.3,0.7s0.4,0.4,0.7,0.5c0.3,0.1,0.6,0.3,1,0.4c0.4,0.1,0.7,0.2,1.1,0.4
			c0.6,0.2,1.2,0.5,1.7,0.7s1,0.6,1.3,0.9c0.4,0.4,0.7,0.8,0.8,1.2c0.2,0.5,0.3,1,0.3,1.7c0,0.9-0.2,1.7-0.6,2.4
			c-0.4,0.7-0.9,1.2-1.6,1.6c-0.7,0.4-1.4,0.7-2.3,0.9c-0.9,0.2-1.8,0.3-2.7,0.3C462.4,82.4,460.8,82.1,459.4,81.6z"/>
		<path class="st1" d="M486.3,82h-13.9v-2l7.8-10h-7v-3.5h13.1v2.4l-7.4,9.6h7.4V82z"/>
		<path class="st1" d="M502.8,74.5V82h-4.9V60.3h7.7c5.5,0,8.2,2.3,8.2,6.9c0,2.2-0.8,3.9-2.4,5.3c-1.6,1.3-3.7,2-6.3,2H502.8z
			 M502.8,64v6.8h1.9c2.6,0,3.9-1.1,3.9-3.4c0-2.2-1.3-3.3-3.9-3.3H502.8z"/>
		<path class="st1" d="M526.6,70.8c-0.6-0.3-1.2-0.5-2-0.5c-1,0-1.9,0.4-2.4,1.1c-0.6,0.8-0.9,1.8-0.9,3.1V82h-4.8V66.5h4.8v2.9h0.1
			c0.8-2.1,2.1-3.1,4.1-3.1c0.5,0,0.9,0.1,1.2,0.2V70.8z"/>
		<path class="st1" d="M541.7,82h-13.9v-2l7.8-10h-7v-3.5h13.1v2.4l-7.4,9.6h7.4V82z"/>
		<path class="st1" d="M559,66.5l-6.3,16.7c-1.5,4-3.8,6-6.8,6c-1.2,0-2.1-0.1-2.9-0.4v-3.8c0.6,0.4,1.3,0.6,2.1,0.6
			c1.2,0,2.1-0.6,2.6-1.7l0.8-1.9l-6.3-15.5h5.3l2.9,9.4c0.2,0.6,0.3,1.3,0.4,2.1h0.1c0.1-0.6,0.3-1.3,0.5-2l2.9-9.5H559z"/>
		<path class="st1" d="M565.8,80.2L565.8,80.2l-0.1,1.8H561V59.1h4.8v9.8h0.1c1.2-1.8,2.9-2.7,5-2.7c2,0,3.5,0.7,4.6,2.1
			c1.1,1.4,1.6,3.2,1.6,5.6c0,2.6-0.6,4.7-1.9,6.2s-2.9,2.3-5.1,2.3C568.2,82.4,566.8,81.7,565.8,80.2z M565.7,73.7v1.6
			c0,1,0.3,1.8,0.9,2.5c0.6,0.7,1.3,1,2.2,1c1.1,0,1.9-0.4,2.5-1.3c0.6-0.8,0.9-2,0.9-3.6c0-1.3-0.3-2.3-0.8-3s-1.3-1.1-2.4-1.1
			c-1,0-1.8,0.4-2.4,1.1S565.7,72.5,565.7,73.7z"/>
		<path class="st1" d="M587.6,82.4c-2.6,0-4.6-0.7-6.1-2.2c-1.5-1.4-2.2-3.4-2.2-5.9c0-2.6,0.8-4.6,2.3-6c1.5-1.4,3.6-2.2,6.2-2.2
			c2.6,0,4.6,0.7,6.1,2.2s2.2,3.4,2.2,5.7c0,2.6-0.8,4.6-2.3,6.1C592.3,81.6,590.2,82.4,587.6,82.4z M587.7,69.8
			c-1.1,0-2,0.4-2.6,1.2c-0.6,0.8-0.9,1.9-0.9,3.3c0,3,1.2,4.5,3.6,4.5c2.3,0,3.4-1.5,3.4-4.6C591.1,71.2,590,69.8,587.7,69.8z"/>
		<path class="st1" d="M609.2,70.8c-0.6-0.3-1.2-0.5-2-0.5c-1,0-1.9,0.4-2.4,1.1c-0.6,0.8-0.9,1.8-0.9,3.1V82h-4.8V66.5h4.8v2.9h0.1
			c0.8-2.1,2.1-3.1,4.1-3.1c0.5,0,0.9,0.1,1.2,0.2V70.8z"/>
		<path class="st1" d="M618.7,82.4c-2.6,0-4.6-0.7-6.1-2.2c-1.5-1.4-2.2-3.4-2.2-5.9c0-2.6,0.8-4.6,2.3-6c1.5-1.4,3.6-2.2,6.2-2.2
			c2.6,0,4.6,0.7,6.1,2.2c1.5,1.4,2.2,3.4,2.2,5.7c0,2.6-0.8,4.6-2.3,6.1C623.4,81.6,621.4,82.4,618.7,82.4z M618.8,69.8
			c-1.1,0-2,0.4-2.6,1.2s-0.9,1.9-0.9,3.3c0,3,1.2,4.5,3.6,4.5c2.3,0,3.4-1.5,3.4-4.6C622.3,71.2,621.2,69.8,618.8,69.8z"/>
		<path class="st1" d="M652.7,66.5L648.3,82h-5l-2.3-9.1c-0.2-0.6-0.2-1.3-0.3-2h-0.1c-0.1,0.8-0.2,1.4-0.3,1.9l-2.5,9.1h-5
			l-4.4-15.5h4.9l2.1,10.1c0.1,0.5,0.2,1,0.2,1.7h0.1c0.1-0.7,0.1-1.3,0.3-1.8l2.7-10.1h4.6l2.4,10.1c0.1,0.3,0.1,0.8,0.2,1.8h0.1
			c0-0.6,0.1-1.2,0.2-1.8l2-10.1H652.7z"/>
		<path class="st1" d="M654,81.6v-3.9c0.8,0.5,1.6,0.8,2.4,1.1c0.8,0.2,1.5,0.3,2.2,0.3c0.8,0,1.5-0.1,2-0.3
			c0.5-0.2,0.7-0.6,0.7-1.1c0-0.3-0.1-0.6-0.3-0.8c-0.2-0.2-0.5-0.4-0.9-0.5c-0.3-0.2-0.7-0.3-1.1-0.4s-0.8-0.3-1.2-0.4
			c-0.6-0.2-1.2-0.5-1.6-0.7c-0.5-0.3-0.9-0.6-1.2-0.9c-0.3-0.4-0.6-0.8-0.7-1.2c-0.2-0.5-0.2-1-0.2-1.6c0-0.9,0.2-1.6,0.6-2.2
			c0.4-0.6,0.9-1.1,1.5-1.5c0.6-0.4,1.4-0.7,2.2-0.9c0.8-0.2,1.7-0.3,2.5-0.3c0.7,0,1.4,0.1,2.1,0.2c0.7,0.1,1.4,0.3,2.1,0.5v3.7
			c-0.6-0.4-1.3-0.6-1.9-0.8c-0.7-0.2-1.4-0.3-2-0.3c-0.3,0-0.6,0-0.9,0.1c-0.3,0.1-0.5,0.1-0.7,0.2c-0.2,0.1-0.4,0.2-0.5,0.4
			c-0.1,0.2-0.2,0.4-0.2,0.6c0,0.3,0.1,0.5,0.3,0.7s0.4,0.4,0.7,0.5s0.6,0.3,1,0.4c0.4,0.1,0.7,0.2,1.1,0.4c0.6,0.2,1.2,0.5,1.7,0.7
			c0.5,0.3,1,0.6,1.3,0.9c0.4,0.4,0.7,0.8,0.8,1.2c0.2,0.5,0.3,1,0.3,1.7c0,0.9-0.2,1.7-0.6,2.4c-0.4,0.7-0.9,1.2-1.6,1.6
			c-0.7,0.4-1.4,0.7-2.3,0.9c-0.9,0.2-1.8,0.3-2.7,0.3C657,82.4,655.5,82.1,654,81.6z"/>
		<path class="st1" d="M684.2,82h-5.7l-5-7.7h-0.1V82h-4.8V59.1h4.8v14.6h0.1l4.6-7.2h5.7l-5.6,7.3L684.2,82z"/>
		<path class="st1" d="M688.4,64c-0.8,0-1.5-0.2-2-0.7s-0.8-1.1-0.8-1.8c0-0.7,0.3-1.3,0.8-1.8s1.2-0.7,2-0.7c0.8,0,1.5,0.2,2,0.7
			c0.5,0.5,0.8,1,0.8,1.8c0,0.7-0.3,1.3-0.8,1.8C689.9,63.8,689.2,64,688.4,64z M690.8,82H686V66.5h4.8V82z"/>
	</g>
	<g class="st0">
		<path class="st2" d="M384.7,121.7h-2v-2.1h0c-0.9,1.6-2.4,2.4-4.3,2.4c-1.6,0-2.8-0.6-3.8-1.7s-1.4-2.7-1.4-4.6
			c0-2.1,0.5-3.7,1.6-5c1-1.3,2.4-1.9,4.2-1.9c1.7,0,3,0.7,3.8,2h0v-7.8h2V121.7z M382.7,116.1v-1.9c0-1-0.3-1.9-1-2.6
			c-0.7-0.7-1.5-1.1-2.6-1.1c-1.2,0-2.2,0.4-2.9,1.3c-0.7,0.9-1.1,2.1-1.1,3.7c0,1.4,0.3,2.6,1,3.4c0.7,0.8,1.6,1.3,2.7,1.3
			c1.1,0,2-0.4,2.7-1.2C382.3,118.3,382.7,117.3,382.7,116.1z"/>
		<path class="st2" d="M400.2,122c-1.9,0-3.3-0.6-4.4-1.8s-1.7-2.7-1.7-4.7c0-2.1,0.6-3.8,1.7-4.9c1.2-1.2,2.7-1.8,4.7-1.8
			c1.9,0,3.3,0.6,4.4,1.7s1.6,2.8,1.6,4.8c0,2-0.6,3.6-1.7,4.8C403.6,121.4,402.1,122,400.2,122z M400.3,110.6
			c-1.3,0-2.3,0.4-3.1,1.3s-1.1,2.1-1.1,3.6c0,1.5,0.4,2.7,1.1,3.5s1.8,1.3,3.1,1.3c1.3,0,2.3-0.4,3-1.3c0.7-0.8,1-2,1-3.6
			c0-1.6-0.3-2.8-1-3.6C402.6,111,401.6,110.6,400.3,110.6z"/>
		<path class="st2" d="M422.4,111.2c-0.4-0.3-0.9-0.4-1.5-0.4c-0.9,0-1.6,0.4-2.2,1.2c-0.6,0.8-0.9,1.9-0.9,3.3v6.4h-2v-12.6h2v2.6
			h0c0.3-0.9,0.7-1.6,1.3-2.1c0.6-0.5,1.2-0.7,2-0.7c0.5,0,0.9,0.1,1.2,0.2V111.2z"/>
		<path class="st2" d="M439.7,121.7h-2v-2h0c-0.9,1.5-2.2,2.3-3.9,2.3c-1.3,0-2.2-0.3-2.9-1c-0.7-0.7-1.1-1.5-1.1-2.6
			c0-2.3,1.4-3.7,4.1-4.1l3.8-0.5c0-2.1-0.9-3.2-2.6-3.2c-1.5,0-2.9,0.5-4.1,1.5v-2.1c1.2-0.8,2.7-1.2,4.3-1.2c3,0,4.4,1.6,4.4,4.7
			V121.7z M437.7,115.4l-3,0.4c-0.9,0.1-1.6,0.4-2.1,0.7c-0.5,0.3-0.7,0.9-0.7,1.8c0,0.6,0.2,1.1,0.7,1.5c0.4,0.4,1,0.6,1.7,0.6
			c1,0,1.8-0.3,2.5-1s1-1.6,1-2.7V115.4z"/>
		<path class="st2" d="M460.4,121.7h-2v-2.1h0c-0.9,1.6-2.4,2.4-4.3,2.4c-1.6,0-2.8-0.6-3.8-1.7c-0.9-1.1-1.4-2.7-1.4-4.6
			c0-2.1,0.5-3.7,1.6-5s2.4-1.9,4.2-1.9c1.7,0,3,0.7,3.8,2h0v-7.8h2V121.7z M458.4,116.1v-1.9c0-1-0.3-1.9-1-2.6
			c-0.7-0.7-1.5-1.1-2.6-1.1c-1.2,0-2.2,0.4-2.9,1.3c-0.7,0.9-1.1,2.1-1.1,3.7c0,1.4,0.3,2.6,1,3.4c0.7,0.8,1.6,1.3,2.7,1.3
			c1.1,0,2-0.4,2.7-1.2C458,118.3,458.4,117.3,458.4,116.1z"/>
		<path class="st2" d="M479.2,121.2c-1,0.6-2.1,0.9-3.4,0.9c-1.8,0-3.2-0.6-4.3-1.7c-1.1-1.2-1.7-2.7-1.7-4.5c0-2.1,0.6-3.7,1.8-5
			c1.2-1.3,2.8-1.9,4.7-1.9c1.1,0,2.1,0.2,2.9,0.6v2.1c-0.9-0.7-1.9-1-3-1c-1.3,0-2.3,0.5-3.2,1.4c-0.8,0.9-1.2,2.1-1.2,3.6
			c0,1.5,0.4,2.6,1.2,3.5c0.8,0.9,1.8,1.3,3.1,1.3c1.1,0,2.1-0.4,3.1-1.1V121.2z"/>
		<path class="st2" d="M497.4,121.7h-2v-2h0c-0.9,1.5-2.2,2.3-3.9,2.3c-1.3,0-2.2-0.3-2.9-1c-0.7-0.7-1.1-1.5-1.1-2.6
			c0-2.3,1.4-3.7,4.1-4.1l3.8-0.5c0-2.1-0.9-3.2-2.6-3.2c-1.5,0-2.9,0.5-4.1,1.5v-2.1c1.2-0.8,2.7-1.2,4.3-1.2c3,0,4.4,1.6,4.4,4.7
			V121.7z M495.4,115.4l-3,0.4c-0.9,0.1-1.6,0.4-2.1,0.7c-0.5,0.3-0.7,0.9-0.7,1.8c0,0.6,0.2,1.1,0.7,1.5c0.4,0.4,1,0.6,1.7,0.6
			c1,0,1.8-0.3,2.5-1s1-1.6,1-2.7V115.4z"/>
		<path class="st2" d="M522.4,119.9L522.4,119.9l0,7.6h-2v-18.3h2v2.2h0c1-1.7,2.4-2.5,4.3-2.5c1.6,0,2.9,0.6,3.8,1.7
			c0.9,1.1,1.4,2.6,1.4,4.5c0,2.1-0.5,3.8-1.5,5s-2.4,1.9-4.2,1.9C524.6,122,523.3,121.3,522.4,119.9z M522.4,114.8v1.8
			c0,1,0.3,1.9,1,2.6c0.7,0.7,1.5,1.1,2.6,1.1c1.2,0,2.2-0.5,2.9-1.4s1-2.2,1-3.9c0-1.4-0.3-2.5-1-3.3s-1.5-1.2-2.6-1.2
			c-1.2,0-2.1,0.4-2.8,1.2C522.7,112.6,522.4,113.6,522.4,114.8z"/>
		<path class="st2" d="M546.6,122c-1.9,0-3.3-0.6-4.4-1.8s-1.7-2.7-1.7-4.7c0-2.1,0.6-3.8,1.7-4.9c1.2-1.2,2.7-1.8,4.7-1.8
			c1.9,0,3.3,0.6,4.4,1.7s1.6,2.8,1.6,4.8c0,2-0.6,3.6-1.7,4.8S548.5,122,546.6,122z M546.7,110.6c-1.3,0-2.3,0.4-3.1,1.3
			c-0.8,0.9-1.1,2.1-1.1,3.6c0,1.5,0.4,2.7,1.1,3.5c0.8,0.9,1.8,1.3,3.1,1.3c1.3,0,2.3-0.4,3-1.3c0.7-0.8,1-2,1-3.6
			c0-1.6-0.3-2.8-1-3.6C549,111,548,110.6,546.7,110.6z"/>
		<path class="st2" d="M572.9,121.7h-2v-2.1h0c-0.9,1.6-2.4,2.4-4.3,2.4c-1.6,0-2.8-0.6-3.8-1.7s-1.4-2.7-1.4-4.6
			c0-2.1,0.5-3.7,1.6-5s2.4-1.9,4.2-1.9c1.7,0,3,0.7,3.8,2h0v-7.8h2V121.7z M570.9,116.1v-1.9c0-1-0.3-1.9-1-2.6
			c-0.7-0.7-1.5-1.1-2.6-1.1c-1.2,0-2.2,0.4-2.9,1.3c-0.7,0.9-1.1,2.1-1.1,3.7c0,1.4,0.3,2.6,1,3.4c0.7,0.8,1.6,1.3,2.7,1.3
			c1.1,0,2-0.4,2.7-1.2S570.9,117.3,570.9,116.1z"/>
		<path class="st2" d="M592.1,121.7h-2v-2h0c-0.9,1.5-2.2,2.3-3.9,2.3c-1.3,0-2.2-0.3-2.9-1c-0.7-0.7-1.1-1.5-1.1-2.6
			c0-2.3,1.4-3.7,4.1-4.1l3.8-0.5c0-2.1-0.9-3.2-2.6-3.2c-1.5,0-2.9,0.5-4.1,1.5v-2.1c1.2-0.8,2.7-1.2,4.3-1.2c3,0,4.4,1.6,4.4,4.7
			V121.7z M590.1,115.4l-3,0.4c-0.9,0.1-1.6,0.4-2.1,0.7c-0.5,0.3-0.7,0.9-0.7,1.8c0,0.6,0.2,1.1,0.7,1.5c0.4,0.4,1,0.6,1.7,0.6
			c1,0,1.8-0.3,2.5-1s1-1.6,1-2.7V115.4z"/>
		<path class="st2" d="M607.9,121.6c-0.5,0.3-1.1,0.4-1.9,0.4c-2.2,0-3.3-1.2-3.3-3.7v-7.4h-2.2v-1.7h2.2v-3.1l2-0.7v3.7h3.2v1.7
			h-3.2v7.1c0,0.8,0.1,1.4,0.4,1.8c0.3,0.4,0.8,0.5,1.4,0.5c0.5,0,0.9-0.1,1.3-0.4V121.6z"/>
		<path class="st2" d="M627.2,121.7h-2.8l-5.5-6h0v6h-2v-18.6h2v11.8h0l5.3-5.8h2.6l-5.8,6.1L627.2,121.7z"/>
		<path class="st2" d="M640.7,122c-1.9,0-3.3-0.6-4.4-1.8s-1.7-2.7-1.7-4.7c0-2.1,0.6-3.8,1.7-4.9c1.2-1.2,2.7-1.8,4.7-1.8
			c1.9,0,3.3,0.6,4.4,1.7s1.6,2.8,1.6,4.8c0,2-0.6,3.6-1.7,4.8S642.6,122,640.7,122z M640.8,110.6c-1.3,0-2.3,0.4-3.1,1.3
			c-0.8,0.9-1.1,2.1-1.1,3.6c0,1.5,0.4,2.7,1.1,3.5c0.8,0.9,1.8,1.3,3.1,1.3c1.3,0,2.3-0.4,3-1.3c0.7-0.8,1-2,1-3.6
			c0-1.6-0.3-2.8-1-3.6C643.1,111,642.1,110.6,640.8,110.6z"/>
		<path class="st2" d="M672.1,109.2l-3.8,12.6h-2.1l-2.6-9c-0.1-0.3-0.2-0.7-0.2-1.2h0c0,0.3-0.1,0.7-0.3,1.1l-2.8,9h-2l-3.8-12.6
			h2.1l2.6,9.4c0.1,0.3,0.1,0.7,0.2,1.1h0.1c0-0.4,0.1-0.7,0.2-1.2l2.9-9.4h1.8l2.6,9.5c0.1,0.3,0.1,0.7,0.2,1.1h0.1
			c0-0.3,0.1-0.7,0.2-1.1l2.6-9.5H672.1z"/>
		<path class="st2" d="M690.6,109.2l-5.8,14.6c-1,2.6-2.5,3.9-4.3,3.9c-0.5,0-1-0.1-1.3-0.2v-1.8c0.4,0.1,0.8,0.2,1.2,0.2
			c1,0,1.8-0.6,2.3-1.8l1-2.4l-4.9-12.5h2.2l3.4,9.7c0,0.1,0.1,0.4,0.3,1h0.1c0-0.2,0.1-0.5,0.2-0.9l3.6-9.7H690.6z"/>
	</g>
	<line id="Line_1" class="st3" x1="690.6" y1="92.5" x2="373.5" y2="92.5"/>
</g>
</svg>
