<svg xmlns="http://www.w3.org/2000/svg" width="37.042" height="37.041" viewBox="0 0 37.042 37.041">
  <path id="file-certificate-regular" d="M36,7.088,29.929,1.02A3.472,3.472,0,0,0,27.477,0H12.714A3.484,3.484,0,0,0,9.242,3.479V9.26h3.472V3.479H24.287V11a1.732,1.732,0,0,0,1.736,1.736H33.55V33.569H16.187v3.472H33.545a3.478,3.478,0,0,0,3.478-3.472V9.547A3.494,3.494,0,0,0,36,7.088ZM27.759,9.265v-5.5l5.5,5.5ZM17.882,24.473a2.182,2.182,0,0,0,.548-2.083,3.422,3.422,0,0,1,0-2.78,2.182,2.182,0,0,0-.548-2.083,3.377,3.377,0,0,1-1.365-2.407,2.136,2.136,0,0,0-1.5-1.524,3.3,3.3,0,0,1-2.365-1.39,2.093,2.093,0,0,0-2.047-.558,3.255,3.255,0,0,1-2.731,0,2.094,2.094,0,0,0-2.046.558A3.3,3.3,0,0,1,3.465,13.6a2.138,2.138,0,0,0-1.5,1.524A3.371,3.371,0,0,1,.6,17.528a2.182,2.182,0,0,0-.548,2.083,3.422,3.422,0,0,1,0,2.78A2.182,2.182,0,0,0,.6,24.473,3.378,3.378,0,0,1,1.966,26.88a2.136,2.136,0,0,0,1.5,1.524,4.333,4.333,0,0,1,1.146.362v8.275l4.63-2.315,4.63,2.315V28.766a4.341,4.341,0,0,1,1.146-.362,2.138,2.138,0,0,0,1.5-1.524,3.375,3.375,0,0,1,1.367-2.407Zm-8.64.993a4.63,4.63,0,1,1,4.63-4.63A4.63,4.63,0,0,1,9.242,25.466Z" transform="translate(0.02)" fill="#fff"/>
</svg>