<svg xmlns="http://www.w3.org/2000/svg" width="195" height="185" viewBox="0 0 195 185">
  <g id="Group_22" data-name="Group 22" transform="translate(-960 -1798)">
    <circle id="Ellipse_29" data-name="Ellipse 29" cx="79" cy="79" r="79" transform="translate(960 1798)" fill="#0068bb"/>
    <g id="Ellipse_32" data-name="Ellipse 32" transform="translate(963 1927)" fill="none" stroke="#c7c7c7" stroke-width="5">
      <ellipse cx="28.5" cy="28" rx="28.5" ry="28" stroke="none"/>
      <ellipse cx="28.5" cy="28" rx="26" ry="25.5" fill="none"/>
    </g>
    <ellipse id="Ellipse_33" data-name="Ellipse 33" cx="18" cy="17.5" rx="18" ry="17.5" transform="translate(1119 1910)" fill="#00a475"/>
    <path id="hands-helping-regular" d="M102.818,32.781l-1.29-2.241A2.584,2.584,0,0,0,98,29.588L82.406,38.682a9.012,9.012,0,0,0-8.916-7.836H48.983V41.165a5.159,5.159,0,1,1-10.319,0V27.251a5.161,5.161,0,0,1,2.418-4.369l5.385-3.37a10.252,10.252,0,0,1,5.466-1.564H68.911l19.315-11a2.57,2.57,0,0,0,.967-3.515L87.92,1.2A2.57,2.57,0,0,0,84.405.228l-17.526,10H51.933a18.054,18.054,0,0,0-9.561,2.741l-5.4,3.37A12.7,12.7,0,0,0,31.3,24.365L21.719,30.1A12.948,12.948,0,0,0,15.447,41.2v5.5L1.258,54.886a2.584,2.584,0,0,0-.951,3.531L1.6,60.658a2.584,2.584,0,0,0,3.531.951L23.186,51.177V41.213a5.182,5.182,0,0,1,2.515-4.45l5.224-3.16v6.8c0,6.739,4.837,12.915,11.56,13.592A12.9,12.9,0,0,0,56.722,41.165v-2.58H73.49a1.294,1.294,0,0,1,1.29,1.29v5.159a1.294,1.294,0,0,1-1.29,1.29H68.331V56a4.483,4.483,0,0,1-4.482,4.482H59.963v3.87a5.188,5.188,0,0,1-5.192,5.192H34.037L23.911,75.394a2.584,2.584,0,0,0-.951,3.531l1.29,2.241a2.584,2.584,0,0,0,3.531.951L36.1,77.3H54.771A12.962,12.962,0,0,0,67.25,67.752,12.27,12.27,0,0,0,76.07,56.014V53.709a9.035,9.035,0,0,0,5.982-5.869l19.815-11.528A2.587,2.587,0,0,0,102.818,32.781Z" transform="translate(987.438 1834.738)" fill="#fff"/>
  </g>
</svg>
