<svg xmlns="http://www.w3.org/2000/svg" width="94.018" height="70.513" viewBox="0 0 94.018 70.513">
<path id="hard-hat-light" d="M88.142,116.885v-5.876A41.014,41.014,0,0,0,58.761,71.758V69.876A5.876,5.876,0,0,0,52.885,64H41.133a5.876,5.876,0,0,0-5.876,5.876v1.882A41.014,41.014,0,0,0,5.876,111.009v5.876A5.876,5.876,0,0,0,0,122.761v5.876a5.876,5.876,0,0,0,5.876,5.876H88.142a5.876,5.876,0,0,0,5.876-5.876v-5.876A5.876,5.876,0,0,0,88.142,116.885Zm-76.39-5.876A35.046,35.046,0,0,1,33.1,78.9l4.774,19.11a1.653,1.653,0,0,0,3.254-.4V69.876H52.885V97.6a1.653,1.653,0,0,0,3.25.4l4.774-19.11a35.048,35.048,0,0,1,21.356,32.115v5.876H11.752Zm76.39,17.628H5.876v-5.876H88.142Z" transform="translate(0 -64)" fill="#0068bb"></path>
</svg>