<svg xmlns="http://www.w3.org/2000/svg" width="72.854" height="72.854" viewBox="0 0 72.854 72.854">
<path id="gas-pump-light" d="M71.516,17.075,58.2,3.742a1.142,1.142,0,0,0-1.608,0L54.982,5.35a1.142,1.142,0,0,0,0,1.608l4.212,4.226V22.767a6.832,6.832,0,0,0,6.83,6.83H68.3V54.384a4.753,4.753,0,0,1-3.785,4.753,4.559,4.559,0,0,1-5.322-4.5V47.81A11.38,11.38,0,0,0,47.81,36.427H45.534V9.107A9.115,9.115,0,0,0,36.427,0H13.66A9.115,9.115,0,0,0,4.553,9.107V68.3H1.138A1.142,1.142,0,0,0,0,69.439v2.277a1.142,1.142,0,0,0,1.138,1.138h47.81a1.142,1.142,0,0,0,1.138-1.138V69.439A1.142,1.142,0,0,0,48.949,68.3H45.534V40.98H47.81a6.832,6.832,0,0,1,6.83,6.83v6.318c0,4.539,3.088,8.751,7.57,9.491A9.116,9.116,0,0,0,72.854,54.64V20.291a4.545,4.545,0,0,0-1.338-3.216ZM68.3,25.043H66.024a2.283,2.283,0,0,1-2.277-2.277V15.738L68.3,20.291ZM40.98,68.3H9.107V31.873H40.98Zm0-40.98H9.107V9.107A4.567,4.567,0,0,1,13.66,4.553H36.427A4.567,4.567,0,0,1,40.98,9.107Z" fill="#a8a8a8"></path>
</svg>