<svg xmlns="http://www.w3.org/2000/svg" width="25.2" height="25.2" viewBox="0 0 25.2 25.2">
<circle cx="2" cy="2" r="2" transform="translate(7 15.1)" fill="#0068bb" opacity="0"></circle>
<path id="phone-alt-solid_2_" data-name="phone-alt-solid (2)" d="M24.481,17.814l-5.513-2.363a1.181,1.181,0,0,0-1.378.34l-2.441,2.983a18.244,18.244,0,0,1-8.721-8.721L9.411,7.611a1.178,1.178,0,0,0,.34-1.378L7.388.72A1.189,1.189,0,0,0,6.034.036L.915,1.217A1.181,1.181,0,0,0,0,2.369,22.835,22.835,0,0,0,22.838,25.206a1.181,1.181,0,0,0,1.152-.915l1.181-5.119a1.2,1.2,0,0,0-.69-1.358Z" transform="translate(0 -0.006)" fill="#366457"></path>
</svg>